<?xml version="1.0" encoding="utf-8"?>
<!-- Generator: Adobe Illustrator 16.0.0, SVG Export Plug-In . SVG Version: 6.00 Build 0)  -->
<!DOCTYPE svg PUBLIC "-//W3C//DTD SVG 1.1//EN" "http://www.w3.org/Graphics/SVG/1.1/DTD/svg11.dtd">
<svg version="1.1" id="Layer_1" xmlns="http://www.w3.org/2000/svg" xmlns:xlink="http://www.w3.org/1999/xlink" x="0px" y="0px"
	 width="50px" height="39.238px" viewBox="0 6.51 50 39.238" enable-background="new 0 6.51 50 39.238" xml:space="preserve">
<g>
	<path fill="#2B303A" d="M2.288,6.787C0.764,7.574,0,8.589,0,9.837v32.445c0,0.554,0.138,1.067,0.416,1.526
		c0.785,1.293,1.802,1.939,3.05,1.939H46.52c0.513,0,0.996-0.137,1.457-0.415c1.293-0.787,1.941-1.808,1.941-3.052V9.978
		c0-0.555-0.118-1.065-0.35-1.525C48.785,7.158,47.768,6.51,46.52,6.51H3.12C2.937,6.51,2.658,6.604,2.288,6.787z M24.96,32.51
		l17.819-14.214h0.066v20.313H7.141V18.296L24.96,32.51z M36.884,13.652L24.82,23.288c-7.857-6.24-11.854-9.451-11.995-9.636H36.884
		z"/>
</g>
</svg>
