<?xml version="1.0" encoding="utf-8"?>
<!-- Generator: Adobe Illustrator 16.0.0, SVG Export Plug-In . SVG Version: 6.00 Build 0)  -->
<!DOCTYPE svg PUBLIC "-//W3C//DTD SVG 1.1//EN" "http://www.w3.org/Graphics/SVG/1.1/DTD/svg11.dtd">
<svg version="1.1" id="Layer_1" xmlns="http://www.w3.org/2000/svg" xmlns:xlink="http://www.w3.org/1999/xlink" x="0px" y="0px"
	 width="300px" height="300px" viewBox="0 0 300 300" enable-background="new 0 0 300 300" xml:space="preserve">
<g>
	<circle fill="#2A6AEA" cx="150" cy="150" r="150"/>
</g>
<g>
	<path fill="none" stroke="#FFFFFF" stroke-width="15" stroke-miterlimit="10" d="M75.915,86.795
		c-4.979,2.572-7.477,5.887-7.477,9.966v106.024c0,1.81,0.452,3.49,1.359,4.989c2.565,4.225,5.888,6.335,9.966,6.335h140.69
		c1.68,0,3.256-0.449,4.763-1.356c4.225-2.573,6.344-5.909,6.344-9.974V97.225c0-1.816-0.387-3.482-1.143-4.985
		c-2.559-4.232-5.885-6.351-9.964-6.351H78.634C78.036,85.889,77.125,86.199,75.915,86.795z"/>
</g>
<polyline fill="none" stroke="#FFFFFF" stroke-width="15" stroke-linecap="round" stroke-linejoin="round" stroke-miterlimit="10" points="
	68.438,94.176 150,155.581 231.561,94.64 "/>
</svg>
