<?xml version="1.0" encoding="utf-8"?>
<!-- Generator: Adobe Illustrator 16.0.0, SVG Export Plug-In . SVG Version: 6.00 Build 0)  -->
<!DOCTYPE svg PUBLIC "-//W3C//DTD SVG 1.1//EN" "http://www.w3.org/Graphics/SVG/1.1/DTD/svg11.dtd">
<svg version="1.1" id="Capa_1" xmlns="http://www.w3.org/2000/svg" xmlns:xlink="http://www.w3.org/1999/xlink" x="0px" y="0px"
	 width="200px" height="200px" viewBox="0 0 200 200" enable-background="new 0 0 200 200" xml:space="preserve">
<g>
	<path id="LinkedIn_3_" fill="#2B303A" d="M200,121.629v73.926h-42.883v-69.009c0-17.351-6.184-29.142-21.701-29.142
		c-11.866,0-18.866,7.984-21.991,15.667c-1.125,2.768-1.467,6.643-1.467,10.467v72.008H69.117c0,0,0.575-116.833,0-128.933h42.85
		v18.275c-0.059,0.15-0.184,0.274-0.242,0.441h0.242v-0.441c5.725-8.783,15.867-21.3,38.642-21.3
		C178.875,63.587,200,82.012,200,121.629z M24.258,4.446C9.6,4.446,0,14.062,0,26.746c0,12.342,9.317,22.283,23.708,22.283h0.259
		c14.983,0,24.266-9.941,24.266-22.283C47.941,14.062,38.95,4.446,24.258,4.446z M2.559,195.554h42.858V66.604H2.559V195.554z"/>
</g>
</svg>
