<?xml version="1.0" encoding="utf-8"?>
<!-- Generator: Adobe Illustrator 16.0.0, SVG Export Plug-In . SVG Version: 6.00 Build 0)  -->
<!DOCTYPE svg PUBLIC "-//W3C//DTD SVG 1.1//EN" "http://www.w3.org/Graphics/SVG/1.1/DTD/svg11.dtd">
<svg version="1.1" id="Layer_1" xmlns="http://www.w3.org/2000/svg" xmlns:xlink="http://www.w3.org/1999/xlink" x="0px" y="0px"
	 width="300px" height="300px" viewBox="0 0 300 300" enable-background="new 0 0 300 300" xml:space="preserve">
<g>
	<circle fill="#2A6AEA" cx="150" cy="150" r="150"/>
</g>
<g>
	<path id="LinkedIn_3_" fill="#FFFFFF" d="M226.129,166.466v56.278h-32.646v-52.536c0-13.208-4.707-22.185-16.521-22.185
		c-9.033,0-14.362,6.078-16.741,11.927c-0.857,2.108-1.117,5.057-1.117,7.969v54.819h-32.614c0,0,0.438-88.944,0-98.156h32.621
		v13.913c-0.045,0.114-0.141,0.209-0.185,0.335h0.185v-0.335c4.358-6.687,12.079-16.215,29.418-16.215
		C210.047,122.279,226.129,136.306,226.129,166.466z M92.338,77.255c-11.158,0-18.467,7.321-18.467,16.977
		c0,9.396,7.093,16.963,18.048,16.963h0.197c11.407,0,18.473-7.567,18.473-16.963C110.368,84.576,103.523,77.255,92.338,77.255z
		 M75.819,222.744h32.627v-98.168H75.819V222.744z"/>
</g>
</svg>
