<?xml version="1.0" encoding="utf-8"?>
<!-- Generator: Adobe Illustrator 16.0.0, SVG Export Plug-In . SVG Version: 6.00 Build 0)  -->
<!DOCTYPE svg PUBLIC "-//W3C//DTD SVG 1.1//EN" "http://www.w3.org/Graphics/SVG/1.1/DTD/svg11.dtd">
<svg version="1.1" id="Layer_1" xmlns="http://www.w3.org/2000/svg" xmlns:xlink="http://www.w3.org/1999/xlink" x="0px" y="0px"
	 width="300px" height="300px" viewBox="0 0 300 300" enable-background="new 0 0 300 300" xml:space="preserve">
<g>
	<path fill="#2A6AEA" d="M150,0c-35.572,0-64.514,28.941-64.514,64.514v86.019c0,35.576,28.941,64.518,64.514,64.518
		s64.514-28.942,64.514-64.518V64.514C214.514,28.941,185.572,0,150,0z M112.115,137.581c-3.745,0-6.792-3.046-6.792-6.791
		c0-3.745,3.047-6.791,6.792-6.791s6.79,3.046,6.79,6.791C118.905,134.535,115.86,137.581,112.115,137.581z M112.115,114.316
		c-3.745,0-6.792-3.046-6.792-6.791s3.047-6.791,6.792-6.791s6.79,3.046,6.79,6.791S115.86,114.316,112.115,114.316z
		 M112.115,91.052c-3.745,0-6.792-3.046-6.792-6.791s3.047-6.791,6.792-6.791s6.79,3.046,6.79,6.791S115.86,91.052,112.115,91.052z
		 M112.115,67.788c-3.745,0-6.792-3.046-6.792-6.791c0-3.746,3.047-6.792,6.792-6.792s6.79,3.046,6.79,6.792
		C118.905,64.742,115.86,67.788,112.115,67.788z M124.742,44.521c-3.745,0-6.792-3.045-6.792-6.79s3.047-6.791,6.792-6.791
		s6.79,3.046,6.79,6.791S128.487,44.521,124.742,44.521z M137.371,137.581c-3.745,0-6.792-3.046-6.792-6.791
		c0-3.745,3.047-6.791,6.792-6.791s6.791,3.046,6.791,6.791C144.162,134.535,141.116,137.581,137.371,137.581z M137.371,114.316
		c-3.745,0-6.792-3.046-6.792-6.791s3.047-6.791,6.792-6.791s6.791,3.046,6.791,6.791S141.116,114.316,137.371,114.316z
		 M137.371,91.052c-3.745,0-6.792-3.046-6.792-6.791s3.047-6.791,6.792-6.791s6.791,3.046,6.791,6.791
		S141.116,91.052,137.371,91.052z M137.371,67.788c-3.745,0-6.792-3.046-6.792-6.791c0-3.746,3.047-6.792,6.792-6.792
		s6.791,3.046,6.791,6.792C144.162,64.742,141.116,67.788,137.371,67.788z M150,44.521c-3.745,0-6.792-3.045-6.792-6.79
		s3.047-6.791,6.792-6.791c3.743,0,6.79,3.046,6.79,6.791S153.743,44.521,150,44.521z M162.626,137.581
		c-3.744,0-6.79-3.046-6.79-6.791c0-3.745,3.046-6.791,6.79-6.791c3.746,0,6.792,3.046,6.792,6.791
		C169.418,134.535,166.372,137.581,162.626,137.581z M162.626,114.316c-3.744,0-6.79-3.046-6.79-6.791s3.046-6.791,6.79-6.791
		c3.746,0,6.792,3.046,6.792,6.791S166.372,114.316,162.626,114.316z M162.626,91.052c-3.744,0-6.79-3.046-6.79-6.791
		s3.046-6.791,6.79-6.791c3.746,0,6.792,3.046,6.792,6.791S166.372,91.052,162.626,91.052z M162.626,67.788
		c-3.744,0-6.79-3.046-6.79-6.791c0-3.746,3.046-6.792,6.79-6.792c3.746,0,6.792,3.046,6.792,6.792
		C169.418,64.742,166.372,67.788,162.626,67.788z M175.255,44.521c-3.744,0-6.79-3.045-6.79-6.79s3.046-6.791,6.79-6.791
		c3.745,0,6.792,3.046,6.792,6.791S179,44.521,175.255,44.521z M187.884,137.581c-3.743,0-6.789-3.046-6.789-6.791
		c0-3.745,3.046-6.791,6.789-6.791c3.746,0,6.792,3.046,6.792,6.791C194.676,134.535,191.63,137.581,187.884,137.581z
		 M187.884,114.316c-3.743,0-6.789-3.046-6.789-6.791s3.046-6.791,6.789-6.791c3.746,0,6.792,3.046,6.792,6.791
		S191.63,114.316,187.884,114.316z M187.884,91.052c-3.743,0-6.789-3.046-6.789-6.791s3.046-6.791,6.789-6.791
		c3.746,0,6.792,3.046,6.792,6.791S191.63,91.052,187.884,91.052z M187.884,67.788c-3.743,0-6.789-3.046-6.789-6.791
		c0-3.746,3.046-6.792,6.789-6.792c3.746,0,6.792,3.046,6.792,6.792C194.676,64.742,191.63,67.788,187.884,67.788z"/>
	<path fill="#2A6AEA" d="M242.227,109.281c-5.576,0-10.101,4.525-10.101,10.105l-0.167,3.767v26.752
		c0,45.268-36.696,81.964-81.959,81.964c-45.264,0-81.96-36.696-81.96-81.964v-26.752l-0.166-3.767
		c0-5.58-4.525-10.105-10.102-10.105c-5.58,0-10.104,4.525-10.104,10.105v33.062c0,53.081,40.413,96.715,92.146,101.828v25.353
		H89.872c-5.628,0-10.186,4.56-10.186,10.187c0,5.625,4.558,10.186,10.186,10.186h49.942h20.373h49.94
		c5.628,0,10.187-4.561,10.187-10.186c0-5.627-4.559-10.187-10.187-10.187h-49.94v-25.353
		c51.731-5.113,92.145-48.747,92.145-101.828v-33.062C252.332,113.806,247.808,109.281,242.227,109.281z"/>
</g>
</svg>
