<?xml version="1.0" encoding="utf-8"?>
<!-- Generator: Adobe Illustrator 16.0.0, SVG Export Plug-In . SVG Version: 6.00 Build 0)  -->
<!DOCTYPE svg PUBLIC "-//W3C//DTD SVG 1.1//EN" "http://www.w3.org/Graphics/SVG/1.1/DTD/svg11.dtd">
<svg version="1.1" id="Layer_1" xmlns="http://www.w3.org/2000/svg" xmlns:xlink="http://www.w3.org/1999/xlink" x="0px" y="0px"
	 width="300px" height="300px" viewBox="0 0 300 300" enable-background="new 0 0 300 300" xml:space="preserve">
<g>
	<path fill="#2A6AEA" d="M150,0c-35.572,0-64.514,28.941-64.514,64.514v86.019c0,35.576,28.941,64.518,64.514,64.518
		s64.514-28.941,64.514-64.518V64.514C214.514,28.941,185.572,0,150,0z"/>
	<path fill="#2A6AEA" d="M242.227,109.281c-5.576,0-10.101,4.525-10.101,10.104l-0.167,3.767v26.752
		c0,45.268-36.695,81.964-81.959,81.964c-45.264,0-81.96-36.696-81.96-81.964v-26.752l-0.166-3.767
		c0-5.58-4.525-10.104-10.102-10.104c-5.58,0-10.104,4.525-10.104,10.104v33.062c0,53.081,40.413,96.715,92.146,101.827v25.354
		H89.872c-5.628,0-10.186,4.561-10.186,10.188c0,5.625,4.558,10.186,10.186,10.186h49.942h20.374h49.939
		c5.628,0,10.188-4.561,10.188-10.186c0-5.627-4.56-10.188-10.188-10.188h-49.939v-25.354c51.73-5.112,92.145-48.746,92.145-101.827
		v-33.062C252.332,113.806,247.809,109.281,242.227,109.281z"/>
</g>
</svg>
