<?xml version="1.0" encoding="utf-8"?>
<!-- Generator: Adobe Illustrator 16.0.0, SVG Export Plug-In . SVG Version: 6.00 Build 0)  -->
<!DOCTYPE svg PUBLIC "-//W3C//DTD SVG 1.1//EN" "http://www.w3.org/Graphics/SVG/1.1/DTD/svg11.dtd">
<svg version="1.1" id="Layer_1" xmlns="http://www.w3.org/2000/svg" xmlns:xlink="http://www.w3.org/1999/xlink" x="0px" y="0px"
	 width="612px" height="792px" viewBox="0 0 612 792" enable-background="new 0 0 612 792" xml:space="preserve">
<g>
	<g>
		<path fill="#2A6AEA" d="M309.111,466.354h-6.197c-64.413,0-116.815-52.402-116.815-116.815V131.463
			c0-64.413,52.402-116.815,116.815-116.815h6.197c64.413,0,116.841,52.402,116.841,116.815v218.076
			C425.952,413.978,373.524,466.354,309.111,466.354z M302.889,40.147c-50.363,0-91.315,40.953-91.315,91.315v218.076
			c0,50.362,40.953,91.315,91.315,91.315h6.197c50.388,0,91.341-40.953,91.341-91.315V131.463c0-50.362-40.953-91.315-91.341-91.315
			H302.889z"/>
		<g>
			<g>
				<circle fill="#2A6AEA" cx="383.29" cy="275.436" r="12.087"/>
				<circle fill="#2A6AEA" cx="344.658" cy="275.436" r="12.087"/>
				<circle fill="#2A6AEA" cx="306" cy="275.436" r="12.087"/>
				<circle fill="#2A6AEA" cx="267.368" cy="275.436" r="12.087"/>
				<circle fill="#2A6AEA" cx="228.735" cy="275.436" r="12.087"/>
			</g>
			<g>
				<circle fill="#2A6AEA" cx="383.29" cy="234.993" r="12.087"/>
				<circle fill="#2A6AEA" cx="344.658" cy="234.993" r="12.087"/>
				<circle fill="#2A6AEA" cx="306" cy="234.993" r="12.087"/>
				<circle fill="#2A6AEA" cx="267.368" cy="234.993" r="12.087"/>
				<circle fill="#2A6AEA" cx="228.735" cy="234.993" r="12.087"/>
			</g>
			<g>
				<circle fill="#2A6AEA" cx="383.29" cy="195.544" r="12.087"/>
				<circle fill="#2A6AEA" cx="344.658" cy="195.544" r="12.087"/>
				<circle fill="#2A6AEA" cx="306" cy="195.544" r="12.087"/>
				<circle fill="#2A6AEA" cx="267.368" cy="195.544" r="12.087"/>
				<circle fill="#2A6AEA" cx="228.735" cy="195.544" r="12.087"/>
			</g>
			<g>
				<circle fill="#2A6AEA" cx="383.29" cy="157.142" r="12.087"/>
				<circle fill="#2A6AEA" cx="344.658" cy="157.142" r="12.087"/>
				<circle fill="#2A6AEA" cx="306" cy="157.142" r="12.087"/>
				<circle fill="#2A6AEA" cx="267.368" cy="157.142" r="12.087"/>
				<circle fill="#2A6AEA" cx="228.735" cy="157.142" r="12.087"/>
			</g>
			<g>
				<circle fill="#2A6AEA" cx="362.916" cy="119.427" r="12.087"/>
				<circle fill="#2A6AEA" cx="324.972" cy="119.427" r="12.087"/>
				<circle fill="#2A6AEA" cx="287.028" cy="119.427" r="12.087"/>
				<circle fill="#2A6AEA" cx="249.109" cy="119.427" r="12.087"/>
			</g>
			<g>
				<circle fill="#2A6AEA" cx="266.169" cy="80.081" r="12.087"/>
				<circle fill="#2A6AEA" cx="306" cy="80.081" r="12.087"/>
				<circle fill="#2A6AEA" cx="345.831" cy="80.081" r="12.087"/>
			</g>
		</g>
		<path fill="#2A6AEA" d="M405.756,624.353H206.27c-25.143,0-45.594-20.451-45.594-45.568c0-25.144,20.451-45.594,45.594-45.594
			h68.391v-25.424c-73.848-11.603-130.101-76.194-130.101-152.006V233.514c0-7.038,5.712-12.75,12.75-12.75s12.75,5.712,12.75,12.75
			v122.221c0,66.555,51.969,122.757,118.345,127.984c6.63,0.511,11.756,6.044,11.756,12.699v49.495c0,7.038-5.712,12.75-12.75,12.75
			H206.27c-11.093,0-20.094,9.027-20.094,20.095c0,11.066,9.027,20.068,20.094,20.068H405.73c11.093,0,20.094-9.027,20.094-20.068
			c0-11.093-9.026-20.095-20.094-20.095h-81.166c-7.038,0-12.75-5.712-12.75-12.75v-49.495c0-6.655,5.125-12.215,11.755-12.699
			c66.377-5.202,118.346-61.403,118.346-127.984V232.061c0-7.038,5.712-12.75,12.75-12.75s12.75,5.712,12.75,12.75v123.7
			c0,75.812-56.253,140.403-130.102,152.006v25.424h68.417c25.143,0,45.594,20.45,45.594,45.594
			C451.35,603.901,430.899,624.353,405.756,624.353z"/>
	</g>
	<path fill="#2A6AEA" d="M409.709,331.383H198.823c-7.038,0-12.75-5.712-12.75-12.75c0-7.038,5.712-12.75,12.75-12.75h210.886
		c7.037,0,12.75,5.712,12.75,12.75C422.459,325.671,416.746,331.383,409.709,331.383z"/>
</g>
<text transform="matrix(1 0 0 1 0 1008)" font-family="'HelveticaNeue-Bold'" font-size="127.5">Created by Atif Arshad</text>
<text transform="matrix(1 0 0 1 0 1135.5)" font-family="'HelveticaNeue-Bold'" font-size="127.5">from the Noun Project</text>
</svg>
