<?xml version="1.0" encoding="utf-8"?>
<!-- Generator: Adobe Illustrator 16.0.0, SVG Export Plug-In . SVG Version: 6.00 Build 0)  -->
<!DOCTYPE svg PUBLIC "-//W3C//DTD SVG 1.1//EN" "http://www.w3.org/Graphics/SVG/1.1/DTD/svg11.dtd">
<svg version="1.1" id="Layer_1" xmlns="http://www.w3.org/2000/svg" xmlns:xlink="http://www.w3.org/1999/xlink" x="0px" y="0px"
	 width="300px" height="300px" viewBox="0 0 300 300" enable-background="new 0 0 300 300" xml:space="preserve">
<g>
	<circle fill="#2A6AEA" cx="150" cy="150" r="150"/>
</g>
<g>
	<g>
		<path fill="#FFFFFF" d="M210.28,140.466l-94.064-53.64c-1.364-0.58-2.854-0.923-4.431-0.923c-6.245,0-11.308,5.009-11.418,11.226
			v0.402v104.862c0,0.024-0.005,0.05-0.005,0.075v0.402c0,0.025,0.005,0.05,0.005,0.076l0,0c0.148,6.181,5.192,11.149,11.413,11.149
			c1.594,0,3.097-0.349,4.472-0.939l95.116-54.158c2.591-2.095,4.27-5.271,4.27-8.865
			C215.638,146.057,213.495,142.488,210.28,140.466z"/>
	</g>
</g>
</svg>
