<?xml version="1.0" encoding="utf-8"?>
<!-- Generator: Adobe Illustrator 16.0.0, SVG Export Plug-In . SVG Version: 6.00 Build 0)  -->
<!DOCTYPE svg PUBLIC "-//W3C//DTD SVG 1.1//EN" "http://www.w3.org/Graphics/SVG/1.1/DTD/svg11.dtd">
<svg version="1.1" id="Layer_1" xmlns="http://www.w3.org/2000/svg" xmlns:xlink="http://www.w3.org/1999/xlink" x="0px" y="0px"
	 width="300px" height="300px" viewBox="0 0 300 300" enable-background="new 0 0 300 300" xml:space="preserve">
<g>
	<circle fill="#2A6AEA" cx="150" cy="150" r="150"/>
</g>
<g id="layer1" transform="translate(-539.17946,-568.85777)">
	<path id="path3611" fill="#FFFFFF" d="M663.339,797.602c67.373,0,104.213-55.813,104.213-104.212c0-1.585-0.032-3.164-0.103-4.735
		c7.151-5.171,13.367-11.622,18.27-18.967c-6.563,2.917-13.626,4.881-21.034,5.767c7.563-4.535,13.368-11.708,16.107-20.259
		c-7.077,4.196-14.914,7.245-23.259,8.89c-6.684-7.119-16.2-11.572-26.736-11.572c-20.227,0-36.63,16.403-36.63,36.623
		c0,2.875,0.321,5.67,0.95,8.352c-30.443-1.532-57.436-16.106-75.499-38.269c-3.146,5.413-4.96,11.701-4.96,18.41
		c0,12.707,6.466,23.926,16.299,30.489c-6.009-0.186-11.654-1.835-16.589-4.581c-0.005,0.153-0.005,0.303-0.005,0.468
		c0,17.738,12.625,32.549,29.385,35.905c-3.078,0.839-6.316,1.289-9.658,1.289c-2.356,0-4.652-0.232-6.884-0.661
		c4.663,14.555,18.185,25.144,34.216,25.44c-12.536,9.826-28.328,15.678-45.492,15.678c-2.953,0-5.87-0.167-8.737-0.507
		c16.21,10.391,35.459,16.453,56.146,16.453"/>
</g>
</svg>
